<svg width="300" height="180" viewBox="0 0 300 180" xmlns="http://www.w3.org/2000/svg">

  <!-- ГОЛОВА -->
  <path d="M110 40
           C95 40 80 55 80 75
           C80 95 95 110 110 110
           C110 125 95 135 95 150
           L150 150
           C150 135 135 125 135 110
           C150 110 165 95 165 75
           C165 55 150 40 135 40
           Z"
        fill="#00cc44"/>

  <!-- ПАЗЛИ -->
  <path d="M140 45 h20 v15 h-5 a5 5 0 1 1 -10 0 h-5z" fill="#000"/>
  <path d="M155 65 h20 v15 h-5 a5 5 0 1 1 -10 0 h-5z" fill="#000"/>
  <path d="M125 55 h20 v15 h-5 a5 5 0 1 1 -10 0 h-5z" fill="#000"/>

  <!-- ТЕКСТ -->
  <text x="150" y="170" font-size="28" font-family="monospace" text-anchor="middle" fill="#000">
    STUDY MENTOR
  </text>

</svg>